<svg version="1.1" id="Layer_1" xmlns="http://www.w3.org/2000/svg" xmlns:xlink="http://www.w3.org/1999/xlink" x="0px" y="0px"
	 width="100%" viewBox="0 0 360 720" enable-background="new 0 0 360 720" xml:space="preserve">
<path fill="#FFB000" opacity="1.000000" stroke="none" 
	d="
M0.999999,507.000000 
	C1.000000,506.250000 1.000000,505.500000 1.406068,504.319580 
	C6.496540,503.662415 10.550741,499.528809 8.717913,496.691254 
	C6.336294,493.004120 3.589559,489.552826 0.999995,486.000000 
	C1.000000,381.645782 1.000000,277.291534 1.467223,172.428711 
	C30.322180,171.913940 58.709915,171.908081 87.097649,171.900742 
	C88.425598,171.900406 89.793900,172.076141 91.065521,171.804825 
	C91.765625,171.655457 92.303185,170.744202 92.914017,170.176422 
	C92.151337,169.742172 91.388649,169.307938 90.598694,168.516937 
	C90.521507,167.443100 90.471596,166.726028 90.568184,165.661499 
	C89.696167,163.098267 88.802383,160.809586 87.577560,158.714432 
	C87.242012,158.140457 85.914230,158.146545 84.870605,157.577316 
	C83.947037,156.694641 83.276672,155.901855 82.428429,155.584427 
	C78.144821,153.981400 74.783752,149.061203 69.101654,151.677979 
	C66.329201,152.743637 63.715183,153.967163 61.002842,154.765472 
	C60.619011,152.012817 60.333508,149.685410 59.650810,147.199051 
	C57.004028,144.034149 58.862930,139.197372 54.626106,136.673340 
	C52.980522,136.229279 51.491592,136.119003 49.970829,135.746429 
	C49.889236,135.315170 49.839474,135.146194 49.817219,134.709076 
	C49.561554,134.282318 49.278378,134.123703 48.579521,133.818008 
	C46.711884,133.439087 45.259918,133.207245 43.960274,132.581970 
	C45.452988,130.136719 46.477261,127.750984 48.208500,126.112030 
	C50.752522,123.703606 50.990700,122.124855 48.054108,119.848869 
	C46.472679,118.623207 45.733959,116.362892 44.426044,114.719818 
	C42.244423,111.979111 40.965824,107.817535 36.038177,108.542664 
	C32.331478,107.778374 28.665031,107.444695 24.588924,107.037178 
	C21.958057,107.763397 19.736851,108.563454 17.138144,109.287346 
	C14.862967,110.002701 12.413474,110.304657 11.184767,111.689644 
	C8.774055,114.406967 7.043008,117.727264 4.634633,120.882004 
	C3.159041,120.977310 2.079520,120.988655 1.000000,121.000000 
	C1.000000,81.022446 1.000000,41.044888 1.000000,1.033667 
	C120.910210,1.033667 240.820435,1.033667 361.000000,1.033667 
	C361.000000,100.687401 361.000000,200.375046 360.620911,300.526428 
	C359.488251,301.045990 358.734680,301.101776 357.568420,301.090759 
	C355.026398,301.821136 352.897034,302.618317 350.418701,303.322632 
	C348.686554,303.459961 347.303375,303.690155 345.955811,303.948730 
	C345.991425,303.977081 345.917358,303.912811 345.659424,304.072266 
	C345.250305,304.817474 345.099091,305.403229 344.553528,306.011780 
	C343.108368,307.775146 342.057617,309.515747 340.731293,311.313995 
	C340.334595,311.915192 340.213470,312.458801 339.661804,313.057098 
	C337.118805,314.054901 333.162598,310.846069 332.555084,315.959625 
	C331.778198,316.045441 331.334625,316.100189 330.511047,316.087097 
	C327.095367,317.046997 325.224121,318.805725 325.287964,322.366638 
	C325.308472,323.509460 324.095123,324.674438 323.414124,325.781006 
	C323.381927,325.732697 323.266022,325.727112 323.290955,325.326691 
	C320.259186,321.937103 316.899475,322.386322 314.741394,326.011108 
	C310.344116,325.182098 309.974243,329.116211 307.574158,330.940796 
	C306.343719,333.499176 305.491302,336.004730 304.561981,338.736298 
	C306.401520,338.907074 307.691864,339.026855 308.832581,339.445679 
	C307.123444,340.570465 305.563965,341.396240 303.614105,342.155457 
	C300.410461,342.403748 297.904602,343.094025 298.028259,346.691223 
	C298.096710,348.682343 297.165436,351.315979 300.661621,351.636810 
	C300.430817,356.477539 296.763245,356.185059 293.847565,357.036560 
	C291.822968,357.627869 289.884186,358.512878 287.907043,359.266632 
	C288.092072,359.844421 288.277100,360.422211 288.462128,361.000000 
	C312.641418,361.000000 336.820709,361.000000 361.000000,361.000000 
	C361.000000,433.687561 361.000000,506.375122 360.624725,579.395386 
	C357.855865,581.121643 355.462280,582.515137 352.862427,583.835510 
	C352.656189,583.762451 352.245117,583.912476 351.992676,583.785828 
	C351.186249,583.593750 350.632324,583.528381 349.782196,583.273682 
	C349.019684,583.034241 348.553345,582.984070 348.050964,582.527710 
	C348.036346,580.762695 348.057800,579.403992 348.453339,577.999634 
	C348.494934,576.511353 348.047302,575.084351 347.850006,573.623474 
	C347.031525,567.562683 345.687866,566.195618 339.877289,565.515503 
	C337.239777,564.680603 334.764252,564.211853 332.248016,563.547119 
	C332.207306,563.351074 331.940826,563.049072 332.038818,562.725342 
	C333.086609,561.209167 334.036407,560.016724 335.365906,558.886841 
	C339.162415,557.550415 341.362854,554.988770 339.529877,551.517456 
	C337.582611,547.829712 334.553864,544.712891 331.616119,541.213074 
	C330.031555,540.703308 328.828217,540.327271 327.674805,539.745605 
	C327.586761,539.223206 327.352661,539.115601 326.581635,539.094971 
	C323.111847,539.019531 320.082794,539.066162 316.650452,539.038452 
	C314.152222,539.710754 312.057343,540.457397 309.584534,541.131958 
	C307.865082,541.374878 306.523560,541.689941 305.071167,542.308960 
	C304.306580,543.113647 303.652863,543.614441 302.695221,544.270264 
	C301.731628,545.955750 301.071991,547.486267 300.238159,549.323242 
	C299.985413,550.092773 299.906860,550.555664 299.399597,551.015381 
	C296.347504,551.518677 292.741669,549.390076 291.222900,553.718750 
	C287.185425,553.766479 285.221924,555.505249 284.917389,559.348083 
	C284.805389,560.760925 283.727386,562.097229 283.034302,563.027710 
	C279.408508,559.929688 276.341858,560.325867 274.422668,563.640686 
	C269.573364,562.575623 269.491547,567.317810 266.607910,568.868774 
	C265.025208,572.142578 263.866791,575.446777 262.365723,578.887085 
	C257.536804,582.427185 257.287079,585.942993 260.985413,591.395142 
	C259.496216,592.491577 258.188660,593.268860 256.583801,593.879150 
	C254.351944,594.151733 252.417389,594.591187 250.225250,595.281433 
	C249.378326,596.350586 248.789001,597.169006 248.402344,598.349609 
	C250.598267,598.775146 252.591476,598.891357 254.584824,598.893799 
	C290.056549,598.937439 325.528259,598.967224 361.000000,599.000000 
	C361.000000,639.639648 361.000000,680.279358 361.000000,720.959473 
	C241.106689,720.959473 121.213371,720.959473 1.000000,720.959473 
	C1.000000,662.312805 1.000000,603.625061 1.426403,544.252075 
	C17.393549,543.467102 32.934292,543.367371 48.475033,543.267639 
	C48.501053,542.723816 48.527073,542.179993 48.553093,541.636169 
	C47.686913,541.334717 46.820732,541.033264 45.975204,540.346191 
	C45.334087,538.598267 44.672318,537.235962 43.989601,535.502686 
	C43.671082,533.816895 43.373508,532.502075 42.767948,531.105591 
	C42.247581,531.028015 42.035202,531.032043 41.624836,530.732910 
	C39.718803,525.529846 34.766232,524.796387 30.990154,523.404236 
	C26.660868,521.808044 23.935385,526.195129 20.664600,528.898804 
	C19.896454,528.928772 19.455082,528.892822 18.997791,528.422729 
	C18.139296,524.596375 16.974569,521.246033 16.527664,517.802490 
	C15.810216,512.274353 14.803778,511.126343 9.029297,510.952759 
	C9.022582,510.988220 9.088512,510.958740 9.041086,510.566101 
	C8.150105,509.497772 7.403899,508.538818 6.441772,508.208191 
	C4.695632,507.608215 2.820994,507.382172 0.999999,507.000000 
z"/>
<path fill="#83A0E2" opacity="1.000000" stroke="none" 
	d="
M299.828278,551.018616 
	C299.906860,550.555664 299.985413,550.092773 300.593262,549.296326 
	C301.748108,547.346924 302.373627,545.731079 302.999176,544.115173 
	C303.652863,543.614441 304.306580,543.113647 305.463745,542.308044 
	C307.268707,542.003479 308.570190,542.003723 309.844910,542.369385 
	C308.953705,544.629395 308.557495,547.066895 307.124786,548.302551 
	C304.380219,550.669434 304.296112,552.094360 307.091156,554.495361 
	C309.034332,556.164612 309.812897,559.997925 311.798248,560.599731 
	C314.137543,561.308838 318.043091,563.081055 319.993774,558.981812 
	C319.992859,558.990479 319.976257,558.995239 320.431641,558.971863 
	C323.912170,558.957642 326.937317,558.966858 329.979065,559.322266 
	C329.981720,560.130493 329.967773,560.592346 329.530273,561.064941 
	C326.449524,561.966980 323.670532,562.601868 321.156738,563.795288 
	C311.576233,568.343689 310.151123,577.800232 317.730316,584.953491 
	C318.812866,585.975220 319.280518,587.648560 319.595245,588.997620 
	C316.281616,588.838318 312.643555,590.007141 312.644165,584.991150 
	C312.644196,584.641846 311.102081,584.292480 310.199829,583.572998 
	C309.218475,578.659424 304.911865,579.440430 301.765747,577.728882 
	C293.042877,576.369690 287.813934,580.655090 289.225281,588.301697 
	C289.628387,590.485779 292.973816,592.126709 295.083099,594.408936 
	C305.464478,595.122681 315.732819,595.444153 326.001190,595.765686 
	C325.696991,595.147766 325.392822,594.529846 325.047058,593.539185 
	C324.158447,592.472595 323.306122,591.785034 322.465851,591.082947 
	C321.629700,590.384399 320.805664,589.671326 320.428284,588.945557 
	C322.797760,588.921143 324.805542,589.262329 326.602661,588.794434 
	C327.908020,588.454529 328.934692,587.044373 330.334839,585.927368 
	C332.840820,585.401245 335.097595,585.059204 337.871033,584.638855 
	C336.555847,586.544617 335.760986,587.696472 334.605408,588.899414 
	C332.773499,590.042114 331.302307,591.133728 329.794617,592.252502 
	C333.002411,595.718933 348.266632,597.637939 349.454834,594.987244 
	C348.711517,594.187073 347.913147,593.327698 347.281372,592.647644 
	C348.259705,591.199158 349.018890,590.075134 349.823395,588.544373 
	C349.962311,586.778931 350.055939,585.420105 350.498596,584.047119 
	C351.313477,583.992798 351.779297,583.952637 352.245117,583.912476 
	C352.245117,583.912476 352.656189,583.762451 352.846497,584.261719 
	C353.116364,591.682922 353.378357,591.921143 361.000000,592.000000 
	C361.000000,593.714355 361.000000,595.428711 360.531372,597.566833 
	C322.775024,597.989502 285.487366,597.988403 248.199677,597.987366 
	C248.789001,597.169006 249.378326,596.350586 250.593338,595.290405 
	C253.106384,594.714417 254.993744,594.380249 256.881104,594.046082 
	C258.188660,593.268860 259.496216,592.491577 261.405273,591.385986 
	C263.967407,591.094666 265.928070,591.131775 268.121643,591.394409 
	C269.858734,592.435547 271.362946,593.251221 272.993103,594.454102 
	C278.598206,597.364929 283.637726,596.539612 286.500122,593.008057 
	C285.949707,590.666260 285.625793,588.665771 284.978149,586.776123 
	C284.614777,585.715881 283.715912,584.839172 282.886169,583.658203 
	C282.162903,582.973083 281.611755,582.509460 281.415619,581.989990 
	C284.395050,579.725769 287.019501,577.517334 289.728210,575.237976 
	C289.017883,574.100037 288.363647,573.052002 287.872101,571.647156 
	C289.989502,570.884766 291.944244,570.479126 294.102112,570.391296 
	C297.505920,572.086365 300.672089,573.556213 303.933472,574.770447 
	C304.672943,575.045776 305.742493,574.434326 306.660126,574.231079 
	C305.877136,570.938232 308.593536,569.198364 309.740967,566.741882 
	C310.218048,565.720459 308.997620,562.731445 307.977509,562.400818 
	C304.622314,561.313477 303.776917,558.851257 302.857086,556.014893 
	C302.570282,555.130554 301.148163,554.614441 300.191559,553.565674 
	C300.034302,552.473938 299.931274,551.746277 299.828278,551.018616 
z"/>
<path fill="#C0EAF4" opacity="1.000000" stroke="none" 
	d="
M1.000000,121.468658 
	C2.079520,120.988655 3.159041,120.977310 4.796149,121.203804 
	C8.191900,124.952431 10.541432,129.090256 14.009460,131.792770 
	C17.295630,134.353577 18.170889,136.000198 14.695302,139.270142 
	C14.271618,140.161453 14.159922,141.068787 14.050837,142.317627 
	C14.051581,143.114502 14.049715,143.569870 13.692543,144.173981 
	C11.742554,144.584686 10.020955,144.568878 8.602648,145.216888 
	C7.801998,145.582672 7.500446,147.040863 7.148143,148.287720 
	C8.545708,149.436310 9.769203,150.304169 10.997840,151.546829 
	C11.183038,152.710464 11.153833,154.041168 11.575633,154.204056 
	C15.635790,155.772064 18.600021,158.218567 19.624001,162.682388 
	C19.733774,163.160919 21.465527,163.787079 21.558245,163.665970 
	C22.187328,162.844315 22.578156,161.840240 23.460106,160.911240 
	C25.257658,160.943893 26.641071,160.960419 28.020664,161.355957 
	C28.845306,162.453079 29.662024,163.185333 30.505518,163.885330 
	C31.363459,164.597305 32.247791,165.277451 32.640793,165.986572 
	C21.774015,166.001083 11.387008,166.000549 1.000000,166.000000 
	C1.000000,165.555557 1.000000,165.111099 1.335949,164.278961 
	C3.118087,162.923950 4.564276,161.956604 6.027880,161.377930 
	C7.238221,162.488892 8.423553,163.729584 9.626807,163.747223 
	C10.400140,163.758545 11.199836,161.970474 12.308809,160.930908 
	C12.991415,160.262192 13.361753,159.656006 13.681016,159.024017 
	C13.693332,158.999634 13.214639,158.727203 12.964744,158.570358 
	C12.647360,159.384445 12.329973,160.198532 11.582782,161.001007 
	C9.431682,160.996597 7.710387,161.003784 5.999657,160.607178 
	C6.813513,158.018875 7.616806,155.834396 8.420098,153.649933 
	C8.045089,153.323349 7.670079,152.996750 7.295069,152.670166 
	C5.870541,154.499542 4.433221,156.319138 3.026879,158.162384 
	C2.322142,159.086044 1.673832,160.052765 1.000003,161.000000 
	C1.000000,147.979111 1.000000,134.958206 1.000000,121.468658 
z"/>
<path fill="#88A2DA" opacity="1.000000" stroke="none" 
	d="
M33.120567,165.971542 
	C32.247791,165.277451 31.363459,164.597305 30.505518,163.885330 
	C29.662024,163.185333 28.845306,162.453079 28.012651,161.364868 
	C28.008463,160.994766 27.991842,161.005493 28.440792,160.973083 
	C30.847809,160.930527 32.904881,161.288391 34.733337,160.796494 
	C36.259235,160.385971 37.517262,158.979767 39.087753,157.709808 
	C40.892124,157.220886 42.502659,157.036697 44.113190,156.852524 
	C44.057175,158.196671 44.001156,159.540817 43.607510,160.967804 
	C42.807274,161.999939 42.344666,162.949265 41.943115,163.914719 
	C42.004166,163.930862 41.884651,163.880478 41.544884,163.883423 
	C40.620564,164.289047 40.036015,164.691711 39.451462,165.094391 
	C40.276394,165.427948 41.101330,165.761505 41.955673,166.049133 
	C41.985081,166.003204 41.903740,166.075974 41.918724,166.489532 
	C42.360119,167.535385 42.774155,168.707764 43.214836,168.717850 
	C48.690788,168.843384 54.170609,168.799927 58.553024,168.799927 
	C59.189964,165.488922 59.619354,163.256821 60.260284,160.722107 
	C60.681606,158.676544 60.891388,156.933624 61.101173,155.190689 
	C63.715183,153.967163 66.329201,152.743637 68.981476,151.876617 
	C67.940269,153.479370 66.940865,154.807693 65.764847,155.955002 
	C63.245163,158.413177 63.255497,160.767654 65.880005,163.524323 
	C67.620087,164.608627 69.289497,165.319260 71.023254,166.429550 
	C73.356682,169.515259 82.766624,170.033798 84.826042,167.541565 
	C85.093681,167.217651 85.003326,166.597931 85.418091,166.097824 
	C86.435822,166.111755 87.114243,166.143112 87.807190,166.165024 
	C87.821701,166.155594 87.843636,166.170227 87.871162,166.509293 
	C88.807777,167.523483 89.716873,168.198593 90.625961,168.873718 
	C91.388649,169.307938 92.151337,169.742172 92.914017,170.176422 
	C92.303185,170.744202 91.765625,171.655457 91.065521,171.804825 
	C89.793900,172.076141 88.425598,171.900406 87.097649,171.900742 
	C58.709915,171.908081 30.322180,171.913940 1.467223,171.960052 
	C1.000000,171.250000 1.000000,170.500000 1.468621,169.368439 
	C13.158340,168.986862 24.379438,168.986862 35.600536,168.986862 
	C35.724678,168.421539 35.848816,167.856232 35.972958,167.290909 
	C35.022163,166.851120 34.071365,166.411331 33.120567,165.971542 
z"/>
<path fill="#86A3E2" opacity="1.000000" stroke="none" 
	d="
M361.000000,360.625000 
	C336.820709,361.000000 312.641418,361.000000 288.462128,361.000000 
	C288.277100,360.422211 288.092072,359.844421 287.907043,359.266632 
	C289.884186,358.512878 291.822968,357.627869 293.847565,357.036560 
	C296.763245,356.185059 300.430817,356.477539 300.746918,351.564270 
	C300.893829,351.134216 301.054871,350.978668 301.416748,351.038025 
	C303.825500,351.800598 305.872345,352.503876 308.165405,353.420959 
	C309.942047,354.428314 311.472473,355.221863 313.114014,356.404663 
	C317.144287,357.099457 321.091034,357.789032 324.968323,357.510803 
	C326.407043,357.407562 329.084625,355.369354 326.416351,352.998169 
	C327.134033,353.002777 327.544098,353.006836 328.313538,353.031433 
	C329.383179,353.120392 330.093475,353.188843 331.059021,353.465881 
	C332.830017,354.483521 334.345764,355.292572 335.991150,356.491058 
	C337.456757,357.285522 338.788544,358.022888 340.129425,358.039825 
	C347.084991,358.127808 354.042908,358.031860 361.000000,358.000000 
	C361.000000,358.750000 361.000000,359.500000 361.000000,360.625000 
z"/>
<path fill="#83A0E2" opacity="1.000000" stroke="none" 
	d="
M327.954193,353.010895 
	C327.544098,353.006836 327.134033,353.002777 326.353882,352.579224 
	C325.325836,350.044861 324.667877,347.929962 324.007355,345.512878 
	C324.003204,344.806549 324.001587,344.402435 324.316528,343.873810 
	C326.590881,340.782593 331.147797,338.790833 328.697083,334.011719 
	C331.087799,333.993286 333.065857,333.978729 335.020996,333.980713 
	C334.998016,333.997253 335.033020,333.952148 335.065063,334.234283 
	C335.378693,334.838837 335.660217,335.161285 335.941742,335.483734 
	C336.293427,335.055298 336.645142,334.626862 337.383179,334.129578 
	C338.430878,334.071869 339.210632,333.856659 339.734497,334.130676 
	C343.271851,335.980896 347.761932,340.997742 347.522369,331.540283 
	C351.397400,329.810730 350.158539,326.002777 351.425354,323.059204 
	C354.644562,322.433167 357.418579,321.780151 360.391785,321.078186 
	C360.590912,321.029266 361.000000,321.000000 361.000000,321.000000 
	C361.000000,322.388885 361.000000,323.777802 360.624817,325.599579 
	C358.708282,328.265961 356.987915,330.398651 355.662292,332.753601 
	C352.753174,337.921448 353.629303,343.070068 357.997101,346.873535 
	C358.752350,347.531189 359.986877,347.638489 361.000000,348.000000 
	C361.000000,349.714172 361.000000,351.428314 360.780060,353.295471 
	C359.046265,352.622162 357.532410,351.795868 355.970825,350.625427 
	C354.336731,349.149353 352.750397,348.017456 351.105591,346.573517 
	C350.979187,345.843628 350.911224,345.425781 350.749878,344.674622 
	C348.768585,343.616913 346.880646,342.892609 344.666565,342.079834 
	C343.859009,341.308746 343.377625,340.626190 342.843079,339.562866 
	C336.529938,336.363495 328.390320,341.005188 328.082428,347.584869 
	C327.997894,349.391602 327.994720,351.202118 327.954193,353.010895 
z"/>
<path fill="#C1E7F5" opacity="1.000000" stroke="none" 
	d="
M1.000001,539.000000 
	C1.000000,530.979065 1.000000,522.958191 1.376232,514.444336 
	C4.197815,512.953857 6.643168,511.956299 9.088516,510.958740 
	C9.088512,510.958740 9.022582,510.988220 9.009138,511.300262 
	C8.993894,512.076233 8.992092,512.540161 8.991919,513.259399 
	C8.998361,513.684998 9.003174,513.855164 8.671828,514.014893 
	C7.752853,514.365417 7.170037,514.726379 6.587220,515.087280 
	C7.391810,515.389893 8.196401,515.692505 9.000520,515.997559 
	C9.000049,516.000000 9.005390,516.000000 9.003091,516.333618 
	C9.366776,517.242554 9.732759,517.817932 10.098747,518.393250 
	C10.397301,517.595520 10.695849,516.797729 10.997162,516.000000 
	C10.999926,516.000000 10.998804,515.995117 11.381712,516.020386 
	C12.465646,516.601440 13.428633,517.013611 13.824976,517.736511 
	C16.306904,522.263306 16.851187,526.748413 12.758247,531.008301 
	C12.345838,531.636963 12.231824,532.199280 12.117802,532.761658 
	C12.729931,532.186768 13.342069,531.611877 14.311100,531.030701 
	C15.143677,531.009644 15.619361,530.994934 16.422821,530.984009 
	C17.403324,530.996704 18.056049,531.005615 18.762604,531.379028 
	C18.781269,532.477051 18.746105,533.210632 18.326786,533.951050 
	C16.568956,534.350037 15.190781,534.727051 13.822459,535.136963 
	C9.546298,536.417908 5.273868,537.711365 1.000001,539.000000 
z"/>
<path fill="#C0EAF4" opacity="1.000000" stroke="none" 
	d="
M356.018555,350.969604 
	C357.532410,351.795868 359.046265,352.622162 360.780060,353.724243 
	C361.000000,354.444458 361.000000,354.888885 360.531342,355.665283 
	C351.995636,356.032013 343.928558,356.066833 335.861511,356.101624 
	C334.345764,355.292572 332.830017,354.483521 331.113007,353.058044 
	C331.445099,349.844330 331.978485,347.247070 332.453979,344.931610 
	C333.859833,343.637909 335.088074,341.908905 336.759094,341.131012 
	C338.591919,340.277863 340.833008,340.301849 342.896210,339.943604 
	C343.377625,340.626190 343.859009,341.308746 344.669403,342.419067 
	C345.361176,347.855042 349.122101,343.673279 350.843231,345.007965 
	C350.911224,345.425781 350.979187,345.843628 350.873505,346.793884 
	C351.824860,349.424561 352.949860,351.522736 354.617035,354.632111 
	C355.262115,352.946350 355.640320,351.957977 356.018555,350.969604 
M346.620056,351.372131 
	C347.006592,350.529968 347.393158,349.687805 347.881805,348.623199 
	C345.370514,349.345123 343.521454,349.876678 341.672394,350.408203 
	C341.893951,348.188965 342.115509,345.969757 342.337067,343.750519 
	C340.319305,344.932953 338.304779,346.778687 338.296600,348.633240 
	C338.289276,350.297089 340.206665,352.410461 341.833923,353.453156 
	C342.638580,353.968719 344.702637,352.518829 346.620056,351.372131 
z"/>
<path fill="#809DE0" opacity="1.000000" stroke="none" 
	d="
M18.710934,533.944214 
	C18.746105,533.210632 18.781269,532.477051 18.829554,531.055786 
	C18.814346,529.931152 18.786018,529.494324 18.824856,529.011353 
	C18.892021,528.965210 19.013706,528.856873 19.013708,528.856812 
	C19.455082,528.892822 19.896454,528.928772 20.705387,529.339111 
	C21.186094,536.085632 22.371168,538.049500 28.431482,538.820801 
	C33.538322,539.470642 38.784466,539.025879 44.024498,539.367065 
	C44.704884,540.022888 45.329720,540.377319 45.954552,540.731812 
	C46.820732,541.033264 47.686913,541.334717 48.553093,541.636169 
	C48.527073,542.179993 48.501053,542.723816 48.475033,543.267639 
	C32.934292,543.367371 17.393549,543.467102 1.426403,543.783386 
	C1.000000,543.250000 1.000000,542.500000 1.467865,541.365112 
	C7.442295,540.980164 12.948861,540.980164 19.494469,540.980164 
	C17.795609,539.040649 17.062662,538.203857 16.361149,537.403015 
	C17.204664,536.161377 17.957794,535.052795 18.710934,533.944214 
z"/>
<path fill="#C0EAF4" opacity="1.000000" stroke="none" 
	d="
M361.000000,320.532410 
	C361.000000,321.000000 360.590912,321.029266 359.937744,321.035706 
	C357.284363,320.613831 354.016846,320.753723 353.522064,319.650330 
	C352.049927,316.367249 349.270508,312.642914 353.408447,308.920654 
	C356.164459,307.247040 358.582245,305.623535 361.000000,304.000000 
	C361.000000,309.354919 361.000000,314.709869 361.000000,320.532410 
z"/>
<path fill="#89A4DA" opacity="1.000000" stroke="none" 
	d="
M248.402344,598.349609 
	C285.487366,597.988403 322.775024,597.989502 360.531372,597.995300 
	C361.000000,598.000000 361.000000,598.500000 361.000000,598.750000 
	C325.528259,598.967224 290.056549,598.937439 254.584824,598.893799 
	C252.591476,598.891357 250.598267,598.775146 248.402344,598.349609 
z"/>
<path fill="#D5BDFD" opacity="1.000000" stroke="none" 
	d="
M32.640793,165.986572 
	C34.071365,166.411331 35.022163,166.851120 35.972958,167.290909 
	C35.848816,167.856232 35.724678,168.421539 35.600536,168.986862 
	C24.379438,168.986862 13.158340,168.986862 1.468621,168.993439 
	C1.000000,168.250000 1.000000,167.500000 1.000000,166.375000 
	C11.387008,166.000549 21.774015,166.001083 32.640793,165.986572 
z"/>
<path fill="#E7F5F1" opacity="1.000000" stroke="none" 
	d="
M0.999995,486.467957 
	C3.589559,489.552826 6.336294,493.004120 8.717913,496.691254 
	C10.550741,499.528809 6.496540,503.662415 1.406068,503.944580 
	C1.000000,498.311951 1.000000,492.623932 0.999995,486.467957 
z"/>
<path fill="#D5BDFD" opacity="1.000000" stroke="none" 
	d="
M361.000000,347.666656 
	C359.986877,347.638489 358.752350,347.531189 357.997101,346.873535 
	C353.629303,343.070068 352.753174,337.921448 355.662292,332.753601 
	C356.987915,330.398651 358.708282,328.265961 360.624817,326.016235 
	C361.000000,326.750000 361.000000,327.500000 360.749603,328.892639 
	C356.757111,335.142426 357.983185,340.598450 361.000000,346.000000 
	C361.000000,346.444458 361.000000,346.888885 361.000000,347.666656 
z"/>
<path fill="#C1E9F5" opacity="1.000000" stroke="none" 
	d="
M361.000000,591.539368 
	C353.378357,591.921143 353.116364,591.682922 353.052734,584.334778 
	C355.462280,582.515137 357.855865,581.121643 360.624725,579.864075 
	C361.000000,583.692932 361.000000,587.385803 361.000000,591.539368 
z"/>
<path fill="#D0C2FC" opacity="1.000000" stroke="none" 
	d="
M18.326778,533.951050 
	C17.957794,535.052795 17.204664,536.161377 16.361149,537.403015 
	C17.062662,538.203857 17.795609,539.040649 19.494469,540.980164 
	C12.948861,540.980164 7.442295,540.980164 1.467865,540.990112 
	C1.000000,540.555542 1.000000,540.111084 1.000001,539.333313 
	C5.273868,537.711365 9.546298,536.417908 13.822459,535.136963 
	C15.190781,534.727051 16.568956,534.350037 18.326778,533.951050 
z"/>
<path fill="#D5BDFD" opacity="1.000000" stroke="none" 
	d="
M335.991150,356.491089 
	C343.928558,356.066833 351.995636,356.032013 360.531342,355.998596 
	C361.000000,356.444458 361.000000,356.888885 361.000000,357.666687 
	C354.042908,358.031860 347.084991,358.127808 340.129425,358.039825 
	C338.788544,358.022888 337.456757,357.285522 335.991150,356.491089 
z"/>
<path fill="#D0C2FC" opacity="1.000000" stroke="none" 
	d="
M1.000003,161.375000 
	C1.673832,160.052765 2.322142,159.086044 3.026879,158.162384 
	C4.433221,156.319138 5.870541,154.499542 7.295069,152.670166 
	C7.670079,152.996750 8.045089,153.323349 8.420098,153.649933 
	C7.616806,155.834396 6.813513,158.018875 6.005115,160.601685 
	C6.000010,161.000000 6.010462,160.989258 6.010464,160.989258 
	C4.564276,161.956604 3.118087,162.923950 1.335949,163.945648 
	C1.000000,163.250000 1.000000,162.500000 1.000003,161.375000 
z"/>
<path fill="#E7F5F1" opacity="1.000000" stroke="none" 
	d="
M9.041090,510.566101 
	C6.643168,511.956299 4.197815,512.953857 1.376232,513.975708 
	C1.000000,511.958344 1.000000,509.916656 0.999999,507.437500 
	C2.820994,507.382172 4.695632,507.608215 6.441772,508.208191 
	C7.403899,508.538818 8.150105,509.497772 9.041090,510.566101 
z"/>
<path fill="#C1E7F5" opacity="1.000000" stroke="none" 
	d="
M361.000000,345.532410 
	C357.983185,340.598450 356.757111,335.142426 360.749603,329.267639 
	C361.000000,334.354919 361.000000,339.709869 361.000000,345.532410 
z"/>
<path fill="#E5F6F5" opacity="1.000000" stroke="none" 
	d="
M361.000000,303.625000 
	C358.582245,305.623535 356.164459,307.247040 353.396423,308.562256 
	C354.691132,305.888458 356.336121,303.523010 357.981079,301.157562 
	C358.734680,301.101776 359.488251,301.045990 360.620911,300.995117 
	C361.000000,301.750000 361.000000,302.500000 361.000000,303.625000 
z"/>
<path fill="#C0EAF4" opacity="1.000000" stroke="none" 
	d="
M350.980194,323.032257 
	C350.158539,326.002777 351.397400,329.810730 347.522369,331.540283 
	C347.761932,340.997742 343.271851,335.980896 339.734497,334.130676 
	C339.210632,333.856659 338.430878,334.071869 337.057251,334.075836 
	C335.907654,334.044678 335.470337,333.998413 335.033020,333.952148 
	C335.033020,333.952148 334.998016,333.997253 334.911133,333.625061 
	C332.443146,331.782104 330.104462,330.675568 328.284424,334.015594 
	C331.147797,338.790833 326.590881,340.782593 324.074127,343.899200 
	C323.388275,344.645477 323.261353,345.241852 323.100403,346.278320 
	C322.853485,355.220642 322.080688,355.934540 313.002869,356.015381 
	C311.472473,355.221863 309.942047,354.428314 308.143433,353.049805 
	C306.222046,349.578217 304.568848,346.691650 303.038208,343.597137 
	C303.441986,343.000153 303.723236,342.611115 304.004517,342.222046 
	C305.563965,341.396240 307.123444,340.570465 309.216858,339.401062 
	C311.496368,339.313293 313.241913,339.569183 315.280945,339.979706 
	C316.270599,340.180237 316.966736,340.226135 317.662903,340.272034 
	C317.078583,338.880890 316.494232,337.489807 315.931335,335.697571 
	C315.323944,333.375244 314.695129,331.453979 313.982513,329.276642 
	C314.437256,329.199188 315.195709,329.070038 316.315735,328.876221 
	C318.873535,327.783386 321.069794,326.755249 323.266022,325.727112 
	C323.266022,325.727112 323.381927,325.732697 323.273102,326.112488 
	C321.986847,329.742218 323.294586,331.426941 326.343933,332.101654 
	C326.940399,329.885742 327.466888,327.929749 328.391418,325.964111 
	C332.681671,324.546875 330.388062,321.301941 330.941895,318.943481 
	C330.995117,319.000000 330.885010,318.887543 331.235168,318.914368 
	C332.050781,318.942352 332.516174,318.943481 333.354645,318.937073 
	C334.321472,318.697388 334.939880,318.513153 335.503876,318.223114 
	C336.660828,317.628204 337.788574,316.976532 338.928345,316.348236 
	C339.036743,317.801300 339.283966,319.262146 339.202637,320.704529 
	C339.152008,321.602203 338.604431,322.471863 338.279877,323.354095 
	C338.566254,323.536255 338.852631,323.718445 339.139008,323.900604 
	C340.455933,322.924194 341.772827,321.947815 343.452454,321.044373 
	C346.199921,321.751617 348.584686,322.385925 350.976288,323.017029 
	C350.983154,323.013824 350.980194,323.032257 350.980194,323.032257 
z"/>
<path fill="#C1E9F5" opacity="1.000000" stroke="none" 
	d="
M334.966125,588.848328 
	C335.760986,587.696472 336.555847,586.544617 337.871033,584.638855 
	C335.097595,585.059204 332.840820,585.401245 329.896851,585.896973 
	C321.803589,585.928711 318.355865,582.723572 317.969086,575.601074 
	C317.637970,569.502563 320.936737,565.902222 327.572479,564.958313 
	C329.169861,564.731079 330.717957,564.157471 332.288727,563.743103 
	C334.764252,564.211853 337.239777,564.680603 339.863159,565.921753 
	C342.700409,570.477844 345.389832,574.261597 348.079224,578.045288 
	C348.057800,579.403992 348.036346,580.762695 347.679016,582.559082 
	C345.541351,584.390259 343.739532,585.783691 341.210052,587.739868 
	C343.048950,588.354614 343.994751,588.670776 344.875244,589.352661 
	C340.938354,591.243164 337.938324,596.100769 332.591125,592.984253 
	C333.457489,591.475525 334.211792,590.161926 334.966125,588.848328 
z"/>
<path fill="#849FDE" opacity="1.000000" stroke="none" 
	d="
M15.007290,139.286163 
	C18.170889,136.000198 17.295630,134.353577 14.009460,131.792770 
	C10.541432,129.090256 8.191900,124.952431 5.192221,121.119843 
	C7.043008,117.727264 8.774055,114.406967 11.184767,111.689644 
	C12.413474,110.304657 14.862967,110.002701 17.041542,109.593063 
	C13.798648,114.706230 10.455167,119.126236 13.944455,125.758537 
	C16.612364,130.829605 24.025215,133.060974 28.583187,129.002991 
	C32.259750,129.003098 35.494625,129.004211 38.791985,129.330139 
	C38.868713,130.095474 38.882950,130.535980 38.463913,130.988831 
	C35.716072,131.004395 33.401516,131.007645 30.835777,131.199829 
	C30.389198,132.175339 30.193798,132.961884 29.606655,133.808014 
	C27.768421,134.589966 26.321928,135.312347 24.727514,136.108643 
	C24.391874,136.301025 24.238205,136.453735 23.819086,136.914673 
	C23.223602,138.497940 22.927616,139.807251 22.513292,141.208282 
	C22.248962,141.441864 22.135937,141.606384 21.731384,141.861084 
	C20.966125,141.958725 20.525360,141.988861 19.932362,142.082214 
	C19.497606,142.400192 19.503479,142.663132 19.843437,143.370605 
	C19.858688,145.559891 19.828251,147.312836 19.693731,149.185623 
	C19.534977,149.662628 19.699892,149.887817 20.415548,149.995331 
	C21.183012,150.075394 21.619320,150.141174 22.128624,150.339478 
	C22.316469,150.639221 22.460054,150.776337 22.698711,151.286896 
	C23.217257,152.916336 23.669470,154.142242 24.223684,155.493408 
	C24.484272,155.771439 24.666618,155.886673 24.980915,156.283127 
	C25.743862,157.130325 26.398621,157.658752 27.156851,158.347824 
	C27.427361,158.707703 27.630030,158.859344 27.913092,159.301910 
	C27.969181,160.095459 27.980511,160.550476 27.991842,161.005493 
	C27.991842,161.005493 28.008463,160.994766 28.016476,160.985855 
	C26.641071,160.960419 25.257658,160.943893 23.436516,160.585815 
	C21.037989,158.051605 18.797407,156.043594 17.194387,153.614792 
	C15.563148,151.143219 13.632591,150.533661 10.992700,151.172043 
	C9.769203,150.304169 8.545708,149.436310 7.577014,148.285904 
	C9.265535,147.982697 10.730340,148.141708 12.125874,147.900299 
	C14.357131,147.514297 15.782589,146.490936 14.047850,144.025223 
	C14.049715,143.569870 14.051581,143.114502 14.273558,142.116730 
	C14.664875,140.811584 14.836083,140.048874 15.007290,139.286163 
z"/>
<path fill="#C9E7F3" opacity="1.000000" stroke="none" 
	d="
M43.968945,539.065735 
	C38.784466,539.025879 33.538322,539.470642 28.431482,538.820801 
	C22.371168,538.049500 21.186094,536.085632 21.032164,529.273193 
	C23.935385,526.195129 26.660868,521.808044 30.990154,523.404236 
	C34.766232,524.796387 39.718803,525.529846 41.407356,531.001099 
	C41.387871,532.848511 41.387871,534.124451 41.387871,535.400391 
	C41.839104,535.375366 42.290337,535.350342 42.741570,535.325317 
	C42.853027,533.945984 42.964481,532.566589 43.075939,531.187195 
	C43.373508,532.502075 43.671082,533.816895 43.979813,535.901733 
	C43.983624,537.469727 43.976284,538.267761 43.968945,539.065735 
z"/>
<path fill="#C0EAF4" opacity="1.000000" stroke="none" 
	d="
M329.953796,561.054260 
	C329.967773,560.592346 329.981720,560.130493 329.969147,558.920166 
	C326.999695,554.627197 321.530243,555.079163 319.976257,558.995239 
	C319.976257,558.995239 319.992859,558.990479 319.557312,558.982056 
	C315.188873,558.940918 309.803040,555.255798 310.329163,551.993713 
	C310.786072,549.160889 313.351410,546.668152 315.349396,544.003418 
	C317.289703,543.280334 318.865570,542.578979 320.602692,541.805786 
	C320.602692,543.264160 320.602692,544.480896 320.602692,545.814392 
	C324.669220,545.161255 328.329865,544.573242 331.923676,544.343262 
	C331.198883,546.553101 330.540894,548.404968 329.428162,551.536804 
	C332.184296,550.442810 333.278229,550.008606 335.890045,548.971863 
	C334.503815,551.886108 333.715027,553.544373 333.016602,555.012634 
	C333.624420,556.188843 334.305298,557.506592 334.986206,558.824280 
	C334.036407,560.016724 333.086609,561.209167 331.787048,562.584839 
	C330.942780,562.196777 330.448303,561.625549 329.953796,561.054260 
z"/>
<path fill="#C0EAF4" opacity="1.000000" stroke="none" 
	d="
M65.809326,163.150650 
	C63.255497,160.767654 63.245163,158.413177 65.764847,155.955002 
	C66.940865,154.807693 67.940269,153.479370 69.139908,152.034454 
	C74.783752,149.061203 78.144821,153.981400 82.428429,155.584427 
	C83.276672,155.901855 83.947037,156.694641 84.854462,157.998474 
	C85.937218,161.210663 86.864944,163.692566 87.792671,166.174469 
	C87.114243,166.143112 86.435822,166.111755 84.947922,166.065002 
	C80.070656,166.039795 76.002876,166.029999 72.011742,165.678192 
	C72.664566,164.117218 73.240746,162.898270 73.947586,161.402863 
	C70.656181,162.109726 68.232758,162.630188 65.809326,163.150650 
z"/>
<path fill="#D5BDFD" opacity="1.000000" stroke="none" 
	d="
M329.530273,561.064941 
	C330.448303,561.625549 330.942780,562.196777 331.689056,562.908569 
	C331.940826,563.049072 332.207306,563.351074 332.248016,563.547119 
	C330.717957,564.157471 329.169861,564.731079 327.572479,564.958313 
	C320.936737,565.902222 317.637970,569.502563 317.969086,575.601074 
	C318.355865,582.723572 321.803589,585.928711 329.647644,586.081055 
	C328.934692,587.044373 327.908020,588.454529 326.602661,588.794434 
	C324.805542,589.262329 322.797760,588.921143 320.440491,588.961426 
	C320.000793,588.996338 320.032745,589.020325 320.032745,589.020325 
	C319.280518,587.648560 318.812866,585.975220 317.730316,584.953491 
	C310.151123,577.800232 311.576233,568.343689 321.156738,563.795288 
	C323.670532,562.601868 326.449524,561.966980 329.530273,561.064941 
z"/>
<path fill="#E5F6F5" opacity="1.000000" stroke="none" 
	d="
M49.789707,134.977203 
	C49.839474,135.146194 49.889236,135.315170 50.223042,135.999237 
	C51.932312,136.678604 53.357536,136.842880 54.782761,137.007156 
	C58.862930,139.197372 57.004028,144.034149 59.646095,147.609238 
	C59.327145,150.453598 58.615723,152.728821 57.927071,154.571609 
	C56.810623,150.286743 55.671406,146.434326 54.485992,142.425705 
	C52.923588,143.346054 51.750614,144.037003 49.651573,145.273468 
	C48.742908,142.301010 48.007267,139.894562 47.081902,136.867477 
	C45.841740,137.513260 44.146717,138.395889 42.451694,139.278519 
	C42.534126,138.915939 42.616558,138.553345 42.698990,138.190750 
	C39.458359,137.767487 36.217724,137.344238 33.005371,136.543640 
	C33.931496,135.430634 34.752712,134.561279 35.745934,133.992020 
	C37.088413,133.222580 38.563023,132.683685 40.335785,132.023865 
	C41.163616,131.959900 41.636604,131.917969 42.285614,131.993988 
	C42.910408,132.399750 43.359180,132.687576 43.807953,132.975403 
	C45.259918,133.207245 46.711884,133.439087 48.668907,134.017853 
	C49.328339,134.620071 49.533585,134.824203 49.789707,134.977203 
z"/>
<path fill="#D5BDFD" opacity="1.000000" stroke="none" 
	d="
M28.141497,129.003967 
	C24.025215,133.060974 16.612364,130.829605 13.944455,125.758537 
	C10.455167,119.126236 13.798648,114.706230 17.419043,109.669220 
	C19.736851,108.563454 21.958057,107.763397 24.523712,107.366913 
	C23.246948,110.180435 21.625738,112.590408 19.980696,115.376022 
	C19.162376,117.942947 17.149712,120.641388 17.809874,122.227051 
	C19.545177,126.395126 22.706238,129.601349 28.090370,128.331665 
	C28.087467,128.556839 28.141497,129.003967 28.141497,129.003967 
z"/>
<path fill="#D5BDFD" opacity="1.000000" stroke="none" 
	d="
M314.984955,544.025085 
	C313.351410,546.668152 310.786072,549.160889 310.329163,551.993713 
	C309.803040,555.255798 315.188873,558.940918 319.558228,558.973328 
	C318.043091,563.081055 314.137543,561.308838 311.798248,560.599731 
	C309.812897,559.997925 309.034332,556.164612 307.091156,554.495361 
	C304.296112,552.094360 304.380219,550.669434 307.124786,548.302551 
	C308.557495,547.066895 308.953705,544.629395 309.880981,542.170776 
	C309.943848,541.606873 309.962463,541.204102 309.962463,541.204102 
	C312.057343,540.457397 314.152222,539.710754 316.572388,539.373413 
	C316.260101,541.196838 315.622528,542.610962 314.984955,544.025085 
z"/>
<path fill="#E7F5F1" opacity="1.000000" stroke="none" 
	d="
M43.960274,132.581970 
	C43.359180,132.687576 42.910408,132.399750 42.261982,131.643616 
	C42.224766,128.941681 42.387203,126.708046 42.549641,124.474411 
	C42.272579,124.472740 41.995518,124.471062 41.718456,124.469391 
	C42.582928,122.715469 43.447403,120.961548 44.311874,119.207626 
	C43.952034,118.986771 43.592194,118.765915 43.232353,118.545059 
	C42.126034,119.231293 41.019714,119.917534 39.340290,120.959259 
	C39.651680,119.163307 39.838886,118.083603 40.314003,116.972275 
	C41.131420,116.484474 41.660931,116.028282 42.190437,115.572090 
	C41.788094,115.378136 41.385750,115.184174 40.991276,114.618454 
	C40.991749,113.503189 40.984356,112.759674 40.897873,111.666740 
	C38.894352,109.283096 37.240711,109.173676 35.999786,111.997810 
	C36.000153,112.000305 35.995304,111.998779 35.621307,111.998329 
	C34.499279,111.998489 33.751240,111.999092 33.001591,111.999847 
	C32.999977,112.000000 33.000191,111.996910 33.015633,111.627960 
	C34.046860,110.497101 35.062649,109.735184 36.078434,108.973267 
	C40.965824,107.817535 42.244423,111.979111 44.426044,114.719818 
	C45.733959,116.362892 46.472679,118.623207 48.054108,119.848869 
	C50.990700,122.124855 50.752522,123.703606 48.208500,126.112030 
	C46.477261,127.750984 45.452988,130.136719 43.960274,132.581970 
z"/>
<path fill="#D5BDFD" opacity="1.000000" stroke="none" 
	d="
M357.568420,301.090759 
	C356.336121,303.523010 354.691132,305.888458 353.058167,308.612305 
	C349.270508,312.642914 352.049927,316.367249 353.522064,319.650330 
	C354.016846,320.753723 357.284363,320.613831 359.738586,321.084656 
	C357.418579,321.780151 354.644562,322.433167 351.425354,323.059204 
	C350.980194,323.032257 350.983154,323.013824 350.882324,322.667786 
	C348.055756,318.514343 343.941071,315.100952 347.805237,309.650604 
	C348.995911,307.971161 349.644470,305.907349 350.635834,303.882751 
	C350.730408,303.746002 350.767639,303.415527 350.767639,303.415527 
	C352.897034,302.618317 355.026398,301.821136 357.568420,301.090759 
z"/>
<path fill="#83A0E2" opacity="1.000000" stroke="none" 
	d="
M350.541260,304.019501 
	C349.644470,305.907349 348.995911,307.971161 347.805237,309.650604 
	C343.941071,315.100952 348.055756,318.514343 350.875427,322.670990 
	C348.584686,322.385925 346.199921,321.751617 343.433411,320.646912 
	C342.325012,317.895660 341.598328,315.614746 340.910889,312.987823 
	C340.968994,312.179993 340.987915,311.718170 341.006836,311.256378 
	C342.057617,309.515747 343.108368,307.775146 344.796814,305.829224 
	C345.595428,305.053528 345.756378,304.483154 345.917358,303.912811 
	C345.917358,303.912811 345.991425,303.977081 346.348328,303.974640 
	C347.983917,303.987976 349.262573,304.003754 350.541260,304.019501 
z"/>
<path fill="#E7F5F1" opacity="1.000000" stroke="none" 
	d="
M335.365906,558.886841 
	C334.305298,557.506592 333.624420,556.188843 333.016602,555.012634 
	C333.715027,553.544373 334.503815,551.886108 335.890045,548.971863 
	C333.278229,550.008606 332.184296,550.442810 329.428162,551.536804 
	C330.540894,548.404968 331.198883,546.553101 331.924377,544.013794 
	C331.993744,542.666443 331.995575,542.006653 331.997375,541.346802 
	C334.553864,544.712891 337.582611,547.829712 339.529877,551.517456 
	C341.362854,554.988770 339.162415,557.550415 335.365906,558.886841 
z"/>
<path fill="#E5F6F5" opacity="1.000000" stroke="none" 
	d="
M331.616119,541.213074 
	C331.995575,542.006653 331.993744,542.666443 331.991211,543.655762 
	C328.329865,544.573242 324.669220,545.161255 320.602692,545.814392 
	C320.602692,544.480896 320.602692,543.264160 320.602692,541.805786 
	C318.865570,542.578979 317.289703,543.280334 315.349396,544.003418 
	C315.622528,542.610962 316.260101,541.196838 316.975708,539.447754 
	C320.082794,539.066162 323.111847,539.019531 326.651855,539.240356 
	C327.279907,539.694031 327.433929,539.841919 327.624878,539.951294 
	C328.828217,540.327271 330.031555,540.703308 331.616119,541.213074 
z"/>
<path fill="#E5F6F5" opacity="1.000000" stroke="none" 
	d="
M8.990282,513.004089 
	C8.992092,512.540161 8.993894,512.076233 9.015854,511.264771 
	C14.803778,511.126343 15.810216,512.274353 16.527664,517.802490 
	C16.974569,521.246033 18.139296,524.596375 18.997787,528.422729 
	C19.013706,528.856873 18.892021,528.965210 18.505051,528.988281 
	C17.443733,529.667603 16.769384,530.323914 16.095041,530.980164 
	C15.619361,530.994934 15.143677,531.009644 14.087166,531.004883 
	C13.506340,530.985413 13.056645,530.942017 13.056645,530.942017 
	C16.851187,526.748413 16.306904,522.263306 13.824976,517.736511 
	C13.428633,517.013611 12.465646,516.601440 11.371437,515.673401 
	C10.315594,514.535522 9.652935,513.769836 8.990282,513.004089 
z"/>
<path fill="#D0C2FC" opacity="1.000000" stroke="none" 
	d="
M267.032227,568.899170 
	C269.491547,567.317810 269.573364,562.575623 274.475098,564.032227 
	C274.954620,564.950134 274.982300,565.476257 274.830109,566.229126 
	C274.780060,568.954956 274.909851,571.454041 274.637085,573.944580 
	C270.437561,574.253601 268.804840,571.476379 267.032227,568.899170 
z"/>
<path fill="#809DE0" opacity="1.000000" stroke="none" 
	d="
M266.607910,568.868774 
	C268.804840,571.476379 270.437561,574.253601 274.634827,573.958496 
	C275.035065,573.980957 275.044739,573.961365 275.051880,574.348633 
	C275.046661,575.510132 275.034271,576.284302 274.584564,577.044678 
	C270.444153,577.723511 266.741058,578.416077 262.963013,579.012329 
	C262.888000,578.916138 262.708374,578.751038 262.708374,578.751038 
	C263.866791,575.446777 265.025208,572.142578 266.607910,568.868774 
z"/>
<path fill="#89A4DA" opacity="1.000000" stroke="none" 
	d="
M327.993378,325.973785 
	C327.466888,327.929749 326.940399,329.885742 326.343933,332.101654 
	C323.294586,331.426941 321.986847,329.742218 323.305298,326.160767 
	C324.095123,324.674438 325.308472,323.509460 325.287964,322.366638 
	C325.224121,318.805725 327.095367,317.046997 330.522217,316.429565 
	C330.903900,317.522461 330.894440,318.204987 330.885010,318.887543 
	C330.885010,318.887543 330.995117,319.000000 330.549835,318.963959 
	C329.400848,321.276550 328.697113,323.625153 327.993378,325.973785 
z"/>
<path fill="#D0C2FC" opacity="1.000000" stroke="none" 
	d="
M267.888702,591.168884 
	C265.928070,591.131775 263.967407,591.094666 261.586914,591.066772 
	C257.287079,585.942993 257.536804,582.427185 262.365723,578.887085 
	C262.708374,578.751038 262.888000,578.916138 262.951385,579.431641 
	C261.620422,584.998962 265.879608,587.595276 267.888702,591.168884 
z"/>
<path fill="#E7F5F1" opacity="1.000000" stroke="none" 
	d="
M340.871674,313.333862 
	C341.598328,315.614746 342.325012,317.895660 343.070679,320.573975 
	C341.772827,321.947815 340.455933,322.924194 339.139008,323.900604 
	C338.852631,323.718445 338.566254,323.536255 338.279877,323.354095 
	C338.604431,322.471863 339.152008,321.602203 339.202637,320.704529 
	C339.283966,319.262146 339.036743,317.801300 338.928345,316.348236 
	C337.788574,316.976532 336.660828,317.628204 335.503876,318.223114 
	C334.939880,318.513153 334.321472,318.697388 333.356506,318.560211 
	C332.953033,317.436798 332.920715,316.682678 332.888397,315.928558 
	C333.162598,310.846069 337.118805,314.054901 339.858765,313.134827 
	C340.486298,313.157837 340.871674,313.333862 340.871674,313.333862 
z"/>
<path fill="#D0C2FC" opacity="1.000000" stroke="none" 
	d="
M315.954163,328.940887 
	C315.195709,329.070038 314.437256,329.199188 313.982513,329.276642 
	C314.695129,331.453979 315.323944,333.375244 315.699463,335.693542 
	C315.446136,336.090637 314.984314,336.147858 314.608185,336.102112 
	C312.138763,334.333557 310.045471,332.610748 307.952179,330.887939 
	C309.974243,329.116211 310.344116,325.182098 314.947540,326.246704 
	C315.683746,327.307709 315.818970,328.124298 315.954163,328.940887 
z"/>
<path fill="#809DE0" opacity="1.000000" stroke="none" 
	d="
M307.574158,330.940796 
	C310.045471,332.610748 312.138763,334.333557 314.612732,336.468689 
	C314.991394,337.862396 314.989441,338.843719 314.987488,339.825043 
	C313.241913,339.569183 311.496368,339.313293 309.366516,339.102051 
	C307.691864,339.026855 306.401520,338.907074 304.561981,338.736298 
	C305.491302,336.004730 306.343719,333.499176 307.574158,330.940796 
z"/>
<path fill="#E7F5F1" opacity="1.000000" stroke="none" 
	d="
M348.453369,577.999634 
	C345.389832,574.261597 342.700409,570.477844 340.025146,566.287903 
	C345.687866,566.195618 347.031525,567.562683 347.850006,573.623474 
	C348.047302,575.084351 348.494934,576.511353 348.453369,577.999634 
z"/>
<path fill="#C9E7F3" opacity="1.000000" stroke="none" 
	d="
M57.904297,155.004059 
	C58.615723,152.728821 59.327145,150.453598 60.043285,147.768173 
	C60.333508,149.685410 60.619011,152.012817 61.002846,154.765472 
	C60.891388,156.933624 60.681606,158.676544 59.834106,160.708832 
	C57.774746,160.994446 56.353107,160.990692 54.574375,160.976990 
	C53.610378,160.280304 53.003471,159.593552 52.396561,158.906799 
	C54.232471,157.605881 56.068382,156.304962 57.904297,155.004059 
z"/>
<path fill="#E5F6F5" opacity="1.000000" stroke="none" 
	d="
M36.038177,108.542664 
	C35.062649,109.735184 34.046860,110.497101 32.636501,111.618790 
	C28.395649,109.631393 24.968042,108.942650 22.610767,114.023361 
	C22.332548,114.623016 20.901289,114.687698 20.004528,115.000374 
	C21.625738,112.590408 23.246948,110.180435 24.933372,107.440735 
	C28.665031,107.444695 32.331478,107.778374 36.038177,108.542664 
z"/>
<path fill="#89A4DA" opacity="1.000000" stroke="none" 
	d="
M283.090027,563.468445 
	C283.727386,562.097229 284.805389,560.760925 284.917389,559.348083 
	C285.221924,555.505249 287.185425,553.766479 291.080505,553.833618 
	C291.101349,554.347534 290.923706,554.691467 290.456238,555.253296 
	C289.759827,556.808655 288.946136,558.170288 289.023804,559.479004 
	C289.247681,563.252197 287.524628,565.204468 283.848846,565.618042 
	C283.407593,564.942505 283.095123,564.501282 282.866333,563.915649 
	C282.950012,563.771301 283.090027,563.468445 283.090027,563.468445 
z"/>
<path fill="#C9E7F3" opacity="1.000000" stroke="none" 
	d="
M344.940552,588.987000 
	C343.994751,588.670776 343.048950,588.354614 341.210052,587.739868 
	C343.739532,585.783691 345.541351,584.390259 347.715088,582.965393 
	C348.553345,582.984070 349.019684,583.034241 349.776794,583.425598 
	C350.067596,583.766846 350.149567,584.061340 350.149567,584.061340 
	C350.055939,585.420105 349.962311,586.778931 349.426392,588.555542 
	C347.636261,588.977966 346.288422,588.982483 344.940552,588.987000 
z"/>
<path fill="#E7F5F1" opacity="1.000000" stroke="none" 
	d="
M290.746094,555.035400 
	C290.923706,554.691467 291.101349,554.347534 291.421387,553.888672 
	C292.741669,549.390076 296.347504,551.518677 299.399597,551.015381 
	C299.931274,551.746277 300.034302,552.473938 299.769684,553.586548 
	C296.516724,554.326111 293.631409,554.680786 290.746094,555.035400 
z"/>
<path fill="#89A4DA" opacity="1.000000" stroke="none" 
	d="
M303.614136,342.155457 
	C303.723236,342.611115 303.441986,343.000153 302.666443,343.728271 
	C301.799683,346.371155 301.427277,348.674896 301.054871,350.978668 
	C301.054871,350.978668 300.893829,351.134216 300.808533,351.206787 
	C297.165436,351.315979 298.096710,348.682343 298.028259,346.691223 
	C297.904602,343.094025 300.410461,342.403748 303.614136,342.155457 
z"/>
<path fill="#E7F5F1" opacity="1.000000" stroke="none" 
	d="
M283.034302,563.027710 
	C283.090027,563.468445 282.950012,563.771301 282.671783,563.882568 
	C282.393555,563.993896 281.996918,563.985046 281.614075,563.990295 
	C279.157440,564.664490 277.083710,565.333435 275.009979,566.002441 
	C274.982300,565.476257 274.954620,564.950134 274.874512,564.032349 
	C276.341858,560.325867 279.408508,559.929688 283.034302,563.027710 
z"/>
<path fill="#E7F5F1" opacity="1.000000" stroke="none" 
	d="
M316.315735,328.876221 
	C315.818970,328.124298 315.683746,327.307709 315.342407,326.255554 
	C316.899475,322.386322 320.259186,321.937103 323.290955,325.326691 
	C321.069794,326.755249 318.873535,327.783386 316.315735,328.876221 
z"/>
<path fill="#E7F5F1" opacity="1.000000" stroke="none" 
	d="
M87.807190,166.165039 
	C86.864944,163.692566 85.937218,161.210663 85.025635,158.307587 
	C85.914230,158.146545 87.242012,158.140457 87.577560,158.714432 
	C88.802383,160.809586 89.696167,163.098267 90.246964,165.673126 
	C89.134033,166.078217 88.488838,166.124222 87.843636,166.170227 
	C87.843636,166.170227 87.821701,166.155594 87.807190,166.165039 
z"/>
<path fill="#89A4DA" opacity="1.000000" stroke="none" 
	d="
M256.583801,593.879150 
	C254.993744,594.380249 253.106384,594.714417 250.850922,595.039673 
	C252.417389,594.591187 254.351944,594.151733 256.583801,593.879150 
z"/>
<path fill="#E5F6F5" opacity="1.000000" stroke="none" 
	d="
M42.767948,531.105591 
	C42.964481,532.566589 42.853027,533.945984 42.741570,535.325317 
	C42.290337,535.350342 41.839104,535.375366 41.387871,535.400391 
	C41.387871,534.124451 41.387871,532.848511 41.605347,531.304321 
	C42.035202,531.032043 42.247581,531.028015 42.767948,531.105591 
z"/>
<path fill="#E5F6F5" opacity="1.000000" stroke="none" 
	d="
M44.024498,539.367065 
	C43.976284,538.267761 43.983624,537.469727 44.000759,536.272705 
	C44.672318,537.235962 45.334087,538.598267 45.975204,540.346191 
	C45.329720,540.377319 44.704884,540.022888 44.024498,539.367065 
z"/>
<path fill="#C0EAF4" opacity="1.000000" stroke="none" 
	d="
M87.871162,166.509293 
	C88.488838,166.124222 89.134033,166.078217 90.100464,166.020599 
	C90.471596,166.726028 90.521507,167.443100 90.598686,168.516937 
	C89.716873,168.198593 88.807777,167.523483 87.871162,166.509293 
z"/>
<path fill="#849FDE" opacity="1.000000" stroke="none" 
	d="
M302.695221,544.270264 
	C302.373627,545.731079 301.748108,547.346924 300.767456,548.989746 
	C301.071991,547.486267 301.731628,545.955750 302.695221,544.270264 
z"/>
<path fill="#D0C2FC" opacity="1.000000" stroke="none" 
	d="
M332.555084,315.959625 
	C332.920715,316.682678 332.953033,317.436798 332.983459,318.567749 
	C332.516174,318.943481 332.050781,318.942352 331.235168,318.914368 
	C330.894440,318.204987 330.903900,317.522461 330.902191,316.497437 
	C331.334625,316.100189 331.778198,316.045441 332.555084,315.959625 
z"/>
<path fill="#849FDE" opacity="1.000000" stroke="none" 
	d="
M350.635834,303.882751 
	C349.262573,304.003754 347.983917,303.987976 346.312714,303.946289 
	C347.303375,303.690155 348.686554,303.459961 350.418701,303.322632 
	C350.767639,303.415527 350.730408,303.746002 350.635834,303.882751 
z"/>
<path fill="#849FDE" opacity="1.000000" stroke="none" 
	d="
M309.584534,541.131958 
	C309.962463,541.204102 309.943848,541.606873 309.907776,541.805420 
	C308.570190,542.003723 307.268707,542.003479 305.574615,542.004089 
	C306.523560,541.689941 307.865082,541.374878 309.584534,541.131958 
z"/>
<path fill="#E7F5F1" opacity="1.000000" stroke="none" 
	d="
M54.626106,136.673340 
	C53.357536,136.842880 51.932312,136.678604 50.254875,136.261520 
	C51.491592,136.119003 52.980522,136.229279 54.626106,136.673340 
z"/>
<path fill="#849FDE" opacity="1.000000" stroke="none" 
	d="
M345.659424,304.072266 
	C345.756378,304.483154 345.595428,305.053528 345.191193,305.806458 
	C345.099091,305.403229 345.250305,304.817474 345.659424,304.072266 
z"/>
<path fill="#89A4DA" opacity="1.000000" stroke="none" 
	d="
M350.498596,584.047119 
	C350.149567,584.061340 350.067596,583.766846 350.072998,583.614868 
	C350.632324,583.528381 351.186249,583.593750 351.992676,583.785828 
	C351.779297,583.952637 351.313477,583.992798 350.498596,584.047119 
z"/>
<path fill="#849FDE" opacity="1.000000" stroke="none" 
	d="
M340.910889,312.987823 
	C340.871674,313.333862 340.486298,313.157837 340.289307,313.080109 
	C340.213470,312.458801 340.334595,311.915192 340.731293,311.313995 
	C340.987915,311.718170 340.968994,312.179993 340.910889,312.987823 
z"/>
<path fill="#E7F5F1" opacity="1.000000" stroke="none" 
	d="
M49.817219,134.709076 
	C49.533585,134.824203 49.328339,134.620071 49.084579,134.164917 
	C49.278378,134.123703 49.561554,134.282318 49.817219,134.709076 
z"/>
<path fill="#E7F5F1" opacity="1.000000" stroke="none" 
	d="
M327.674805,539.745605 
	C327.433929,539.841919 327.279907,539.694031 327.092590,539.362427 
	C327.352661,539.115601 327.586761,539.223206 327.674805,539.745605 
z"/>
<path fill="#C1E9F5" opacity="1.000000" stroke="none" 
	d="
M274.830109,566.229126 
	C277.083710,565.333435 279.157440,564.664490 281.668762,564.300781 
	C282.730072,565.021423 283.353851,565.436829 283.977631,565.852234 
	C287.524628,565.204468 289.247681,563.252197 289.023804,559.479004 
	C288.946136,558.170288 289.759827,556.808655 290.456238,555.253296 
	C293.631409,554.680786 296.516724,554.326111 299.823914,553.950562 
	C301.148163,554.614441 302.570282,555.130554 302.857086,556.014893 
	C303.776917,558.851257 304.622314,561.313477 307.977509,562.400818 
	C308.997620,562.731445 310.218048,565.720459 309.740967,566.741882 
	C308.593536,569.198364 305.877136,570.938232 306.660126,574.231079 
	C305.742493,574.434326 304.672943,575.045776 303.933472,574.770447 
	C300.672089,573.556213 297.505920,572.086365 294.324646,570.141602 
	C291.653198,569.352234 288.666229,568.319397 286.363647,569.160461 
	C284.461945,569.854980 285.142578,571.941711 287.709442,572.003967 
	C288.363647,573.052002 289.017883,574.100037 289.728210,575.237976 
	C287.019501,577.517334 284.395050,579.725769 281.391479,581.970581 
	C281.012329,582.007019 280.966614,581.966553 280.977417,581.598083 
	C280.992188,580.491577 280.996155,579.753540 281.329285,578.938843 
	C281.771454,577.573975 281.884491,576.285767 281.957886,574.719727 
	C281.279419,574.293640 280.640656,574.145447 279.588257,573.988403 
	C277.798004,573.973511 276.421356,573.967468 275.044739,573.961426 
	C275.044739,573.961365 275.035065,573.980957 275.037354,573.967041 
	C274.909851,571.454041 274.780060,568.954956 274.830109,566.229126 
z"/>
<path fill="#C1E7F5" opacity="1.000000" stroke="none" 
	d="
M319.988556,588.980469 
	C320.805664,589.671326 321.629700,590.384399 322.465851,591.082947 
	C323.306122,591.785034 324.158447,592.472595 324.570557,593.562622 
	C314.413757,593.978149 304.691925,593.997437 294.970093,594.016724 
	C292.973816,592.126709 289.628387,590.485779 289.225281,588.301697 
	C287.813934,580.655090 293.042877,576.369690 301.772064,578.115479 
	C302.840485,583.610657 306.340515,584.126648 310.277100,583.943176 
	C311.102081,584.292480 312.644196,584.641846 312.644165,584.991150 
	C312.643555,590.007141 316.281616,588.838318 319.595245,588.997620 
	C320.032745,589.020325 320.000793,588.996338 319.988556,588.980469 
z"/>
<path fill="#C1E9F5" opacity="1.000000" stroke="none" 
	d="
M268.121643,591.394409 
	C265.879608,587.595276 261.620422,584.998962 263.026367,579.527832 
	C266.741058,578.416077 270.444153,577.723511 274.719360,577.307617 
	C275.883301,578.376465 276.475098,579.168701 276.754669,580.036682 
	C276.532227,580.707703 276.566498,581.803040 276.720398,581.820129 
	C278.123962,581.975769 279.548309,581.943787 280.966614,581.966553 
	C280.966614,581.966553 281.012329,582.007019 281.036499,582.026489 
	C281.611755,582.509460 282.162903,582.973083 282.859802,584.100586 
	C282.892242,592.422668 281.374115,593.815613 272.867157,594.066833 
	C271.362946,593.251221 269.858734,592.435547 268.121643,591.394409 
z"/>
<path fill="#D5BDFD" opacity="1.000000" stroke="none" 
	d="
M344.875244,589.352661 
	C346.288422,588.982483 347.636261,588.977966 349.381104,588.962280 
	C349.018890,590.075134 348.259705,591.199158 347.281372,592.647644 
	C347.913147,593.327698 348.711517,594.187073 349.454834,594.987244 
	C348.266632,597.637939 333.002411,595.718933 329.794617,592.252502 
	C331.302307,591.133728 332.773499,590.042114 334.605377,588.899414 
	C334.211792,590.161926 333.457489,591.475525 332.591125,592.984253 
	C337.938324,596.100769 340.938354,591.243164 344.875244,589.352661 
z"/>
<path fill="#D5BDFD" opacity="1.000000" stroke="none" 
	d="
M295.083099,594.408936 
	C304.691925,593.997437 314.413757,593.978149 324.612122,593.935425 
	C325.392822,594.529846 325.696991,595.147766 326.001190,595.765686 
	C315.732819,595.444153 305.464478,595.122681 295.083099,594.408936 
z"/>
<path fill="#D5BDFD" opacity="1.000000" stroke="none" 
	d="
M272.993103,594.454102 
	C281.374115,593.815613 282.892242,592.422668 283.031921,584.322144 
	C283.715912,584.839172 284.614777,585.715881 284.978149,586.776123 
	C285.625793,588.665771 285.949707,590.666260 286.500122,593.008057 
	C283.637726,596.539612 278.598206,597.364929 272.993103,594.454102 
z"/>
<path fill="#E5F6F5" opacity="1.000000" stroke="none" 
	d="
M310.199829,583.572998 
	C306.340515,584.126648 302.840485,583.610657 302.018372,578.406616 
	C304.911865,579.440430 309.218475,578.659424 310.199829,583.572998 
z"/>
<path fill="#D0C2FC" opacity="1.000000" stroke="none" 
	d="
M320.431641,558.971863 
	C321.530243,555.079163 326.999695,554.627197 329.952515,558.573853 
	C326.937317,558.966858 323.912170,558.957642 320.431641,558.971863 
z"/>
<path fill="#C1E7F5" opacity="1.000000" stroke="none" 
	d="
M287.872101,571.647156 
	C285.142578,571.941711 284.461945,569.854980 286.363647,569.160461 
	C288.666229,568.319397 291.653198,569.352234 294.121521,569.823853 
	C291.944244,570.479126 289.989502,570.884766 287.872101,571.647156 
z"/>
<path fill="#C1E7F5" opacity="1.000000" stroke="none" 
	d="
M10.997841,151.546829 
	C13.632591,150.533661 15.563148,151.143219 17.194387,153.614792 
	C18.797407,156.043594 21.037989,158.051605 23.022381,160.569687 
	C22.578156,161.840240 22.187328,162.844315 21.558245,163.665970 
	C21.465527,163.787079 19.733774,163.160919 19.624001,162.682388 
	C18.600021,158.218567 15.635790,155.772064 11.575633,154.204056 
	C11.153833,154.041168 11.183038,152.710464 10.997841,151.546829 
z"/>
<path fill="#83A0E2" opacity="1.000000" stroke="none" 
	d="
M13.692543,144.173981 
	C15.782589,146.490936 14.357131,147.514297 12.125874,147.900299 
	C10.730340,148.141708 9.265535,147.982697 7.402945,148.005188 
	C7.500446,147.040863 7.801998,145.582672 8.602648,145.216888 
	C10.020955,144.568878 11.742554,144.584686 13.692543,144.173981 
z"/>
<path fill="#D0C2FC" opacity="1.000000" stroke="none" 
	d="
M11.987717,160.988968 
	C11.199836,161.970474 10.400140,163.758545 9.626807,163.747223 
	C8.423553,163.729584 7.238221,162.488892 6.027878,161.377930 
	C6.010462,160.989258 6.000010,161.000000 5.994551,161.005493 
	C7.710387,161.003784 9.431682,160.996597 11.576632,160.994858 
	C12.000289,161.000305 11.987719,160.988968 11.987717,160.988968 
z"/>
<path fill="#D0C2FC" opacity="1.000000" stroke="none" 
	d="
M12.006438,161.006470 
	C12.329973,160.198532 12.647360,159.384445 12.964744,158.570358 
	C13.214639,158.727203 13.693332,158.999634 13.681016,159.024017 
	C13.361753,159.656006 12.991415,160.262192 12.308811,160.930908 
	C11.987719,160.988968 12.000289,161.000305 12.006438,161.006470 
z"/>
<path fill="#83A0E2" opacity="1.000000" stroke="none" 
	d="
M14.695303,139.270142 
	C14.836083,140.048874 14.664875,140.811584 14.270947,141.775208 
	C14.159922,141.068787 14.271618,140.161453 14.695303,139.270142 
z"/>
<path fill="#C0EAF4" opacity="1.000000" stroke="none" 
	d="
M57.927067,154.571594 
	C56.068382,156.304962 54.232471,157.605881 52.396561,158.906799 
	C53.003471,159.593552 53.610378,160.280304 54.512207,161.343781 
	C50.881844,164.285797 47.011738,167.014557 41.903740,166.075974 
	C41.903740,166.075974 41.985081,166.003204 41.961178,165.679749 
	C41.919735,164.864365 41.902195,164.372421 41.884651,163.880478 
	C41.884651,163.880478 42.004166,163.930862 42.297119,163.869873 
	C43.041763,162.834244 43.493450,161.859604 43.945137,160.884964 
	C44.001156,159.540817 44.057175,158.196671 44.113190,156.852524 
	C42.502659,157.036697 40.892124,157.220886 38.658600,157.709259 
	C34.353649,158.691040 31.213676,157.665466 28.980106,154.668137 
	C28.052969,153.423965 28.084526,151.278015 26.991787,150.376297 
	C21.550104,145.885788 26.984146,142.578522 28.266947,139.024307 
	C28.671785,137.902649 31.343077,137.599014 32.977093,136.920990 
	C36.217724,137.344238 39.458359,137.767487 42.698990,138.190750 
	C42.616558,138.553345 42.534126,138.915939 42.451694,139.278519 
	C44.146717,138.395889 45.841740,137.513260 47.081902,136.867477 
	C48.007267,139.894562 48.742908,142.301010 49.651573,145.273468 
	C51.750614,144.037003 52.923588,143.346054 54.485992,142.425705 
	C55.671406,146.434326 56.810623,150.286743 57.927067,154.571594 
z"/>
<path fill="#D5BDFD" opacity="1.000000" stroke="none" 
	d="
M33.005371,136.543640 
	C31.343077,137.599014 28.671785,137.902649 28.266947,139.024307 
	C26.984146,142.578522 21.550104,145.885788 26.991787,150.376297 
	C28.084526,151.278015 28.052969,153.423965 28.980106,154.668137 
	C31.213676,157.665466 34.353649,158.691040 38.464760,158.013977 
	C37.517262,158.979767 36.259235,160.385971 34.733337,160.796494 
	C32.904881,161.288391 30.847809,160.930527 28.440792,160.973083 
	C27.980511,160.550476 27.969181,160.095459 27.848850,159.108353 
	C27.579754,158.325378 27.350931,158.195694 27.053379,158.187195 
	C26.398621,157.658752 25.743862,157.130325 24.910542,156.122009 
	C24.584352,155.426468 24.380920,155.335159 24.121683,155.368164 
	C23.669470,154.142242 23.217257,152.916336 22.681890,151.123871 
	C22.475498,150.351227 22.294462,150.234421 22.055630,150.206940 
	C21.619320,150.141174 21.183012,150.075394 20.347494,149.765320 
	C19.948284,149.521027 19.797813,149.065765 19.797813,149.065765 
	C19.828251,147.312836 19.858688,145.559891 19.919708,143.143478 
	C19.950289,142.479996 20.084597,142.018997 20.084597,142.018982 
	C20.525360,141.988861 20.966125,141.958725 21.888351,141.807953 
	C22.582493,141.554611 22.669767,141.364365 22.631630,141.116547 
	C22.927616,139.807251 23.223602,138.497940 23.992756,136.892792 
	C24.684418,136.469406 24.820923,136.281998 24.875439,136.034729 
	C26.321928,135.312347 27.768421,134.589966 29.866503,133.645660 
	C30.707714,132.619461 30.897337,131.815186 31.086956,131.010895 
	C33.401516,131.007645 35.716072,131.004395 38.604324,131.205765 
	C39.445656,131.622208 39.713299,131.834045 39.980942,132.045868 
	C38.563023,132.683685 37.088413,133.222580 35.745934,133.992020 
	C34.752712,134.561279 33.931496,135.430634 33.005371,136.543640 
z"/>
<path fill="#D5BDFD" opacity="1.000000" stroke="none" 
	d="
M41.918724,166.489532 
	C47.011738,167.014557 50.881844,164.285797 54.869301,161.353729 
	C56.353107,160.990692 57.774746,160.994446 59.622566,161.011444 
	C59.619354,163.256821 59.189964,165.488922 58.553024,168.799927 
	C54.170609,168.799927 48.690788,168.843384 43.214836,168.717850 
	C42.774155,168.707764 42.360119,167.535385 41.918724,166.489532 
z"/>
<path fill="#D5BDFD" opacity="1.000000" stroke="none" 
	d="
M71.935089,166.020203 
	C76.002876,166.029999 80.070656,166.039795 84.608620,166.082428 
	C85.003326,166.597931 85.093681,167.217651 84.826042,167.541565 
	C82.766624,170.033798 73.356682,169.515259 71.267410,166.424835 
	C71.447227,166.020493 71.935089,166.020203 71.935089,166.020203 
z"/>
<path fill="#D0C2FC" opacity="1.000000" stroke="none" 
	d="
M72.011742,165.678192 
	C71.935089,166.020203 71.447227,166.020493 71.203064,166.025208 
	C69.289497,165.319260 67.620087,164.608627 65.880005,163.524323 
	C68.232758,162.630188 70.656181,162.109726 73.947586,161.402863 
	C73.240746,162.898270 72.664566,164.117218 72.011742,165.678192 
z"/>
<path fill="#D5BDFD" opacity="1.000000" stroke="none" 
	d="
M41.544884,163.883423 
	C41.902195,164.372421 41.919735,164.864365 41.931770,165.725693 
	C41.101330,165.761505 40.276394,165.427948 39.451462,165.094391 
	C40.036015,164.691711 40.620564,164.289047 41.544884,163.883423 
z"/>
<path fill="#D5BDFD" opacity="1.000000" stroke="none" 
	d="
M43.607506,160.967804 
	C43.493450,161.859604 43.041763,162.834244 42.236069,163.853729 
	C42.344666,162.949265 42.807274,161.999939 43.607506,160.967804 
z"/>
<path fill="#D0C2FC" opacity="1.000000" stroke="none" 
	d="
M342.843079,339.562866 
	C340.833008,340.301849 338.591919,340.277863 336.759094,341.131012 
	C335.088074,341.908905 333.859833,343.637909 332.453979,344.931610 
	C331.978485,347.247070 331.445099,349.844330 330.857727,352.849426 
	C330.093475,353.188843 329.383179,353.120392 328.313538,353.031433 
	C327.994720,351.202118 327.997894,349.391602 328.082428,347.584869 
	C328.390320,341.005188 336.529938,336.363495 342.843079,339.562866 
z"/>
<path fill="#D0C2FC" opacity="1.000000" stroke="none" 
	d="
M313.114014,356.404663 
	C322.080688,355.934540 322.853485,355.220642 323.319092,346.289001 
	C323.571838,345.859619 324.009918,345.815063 324.009918,345.815063 
	C324.667877,347.929962 325.325836,350.044861 326.046265,352.578705 
	C329.084625,355.369354 326.407043,357.407562 324.968323,357.510803 
	C321.091034,357.789032 317.144287,357.099457 313.114014,356.404663 
z"/>
<path fill="#D5BDFD" opacity="1.000000" stroke="none" 
	d="
M301.416748,351.038025 
	C301.427277,348.674896 301.799683,346.371155 302.543884,343.936218 
	C304.568848,346.691650 306.222046,349.578217 307.897217,352.835968 
	C305.872345,352.503876 303.825500,351.800598 301.416748,351.038025 
z"/>
<path fill="#C1E7F5" opacity="1.000000" stroke="none" 
	d="
M355.970825,350.625427 
	C355.640320,351.957977 355.262115,352.946350 354.617035,354.632111 
	C352.949860,351.522736 351.824860,349.424561 350.931946,347.105957 
	C352.750397,348.017456 354.336731,349.149353 355.970825,350.625427 
z"/>
<path fill="#86A3E2" opacity="1.000000" stroke="none" 
	d="
M328.697083,334.011719 
	C330.104462,330.675568 332.443146,331.782104 334.934113,333.608521 
	C333.065857,333.978729 331.087799,333.993286 328.697083,334.011719 
z"/>
<path fill="#C1E7F5" opacity="1.000000" stroke="none" 
	d="
M350.749878,344.674622 
	C349.122101,343.673279 345.361176,347.855042 344.995544,342.507538 
	C346.880646,342.892609 348.768585,343.616913 350.749878,344.674622 
z"/>
<path fill="#86A3E2" opacity="1.000000" stroke="none" 
	d="
M335.065063,334.234283 
	C335.470337,333.998413 335.907654,334.044678 336.670898,334.144684 
	C336.645142,334.626862 336.293427,335.055298 335.941742,335.483734 
	C335.660217,335.161285 335.378693,334.838837 335.065063,334.234283 
z"/>
<path fill="#86A3E2" opacity="1.000000" stroke="none" 
	d="
M324.007355,345.512878 
	C324.009918,345.815063 323.571838,345.859619 323.353149,345.848938 
	C323.261353,345.241852 323.388275,344.645477 323.757568,344.023712 
	C324.001587,344.402435 324.003204,344.806549 324.007355,345.512878 
z"/>
<path fill="#E5F6F5" opacity="1.000000" stroke="none" 
	d="
M9.000990,515.995117 
	C8.196401,515.692505 7.391810,515.389893 6.587220,515.087280 
	C7.170037,514.726379 7.752853,514.365417 8.669916,514.342896 
	C9.003103,515.119202 9.002047,515.557190 9.000990,515.995117 
z"/>
<path fill="#E7F5F1" opacity="1.000000" stroke="none" 
	d="
M9.000519,515.997559 
	C9.002047,515.557190 9.003103,515.119202 9.006073,514.353271 
	C9.003174,513.855164 8.998361,513.684998 8.991911,513.259399 
	C9.652935,513.769836 10.315594,514.535522 10.988529,515.648193 
	C10.998804,515.995117 10.999926,516.000000 10.665701,515.999390 
	C9.889447,515.999146 9.447418,515.999573 9.005390,516.000000 
	C9.005390,516.000000 9.000049,516.000000 9.000519,515.997559 
z"/>
<path fill="#E5F6F5" opacity="1.000000" stroke="none" 
	d="
M9.003091,516.333618 
	C9.447418,515.999573 9.889447,515.999146 10.662937,515.999390 
	C10.695849,516.797729 10.397301,517.595520 10.098747,518.393250 
	C9.732759,517.817932 9.366776,517.242554 9.003091,516.333618 
z"/>
<path fill="#D0C2FC" opacity="1.000000" stroke="none" 
	d="
M16.422817,530.984009 
	C16.769384,530.323914 17.443733,529.667603 18.437885,529.034424 
	C18.786018,529.494324 18.814346,529.931152 18.775724,530.691284 
	C18.056049,531.005615 17.403324,530.996704 16.422817,530.984009 
z"/>
<path fill="#D0C2FC" opacity="1.000000" stroke="none" 
	d="
M12.758247,531.008301 
	C13.056645,530.942017 13.506340,530.985413 13.730273,531.011230 
	C13.342069,531.611877 12.729931,532.186768 12.117802,532.761658 
	C12.231824,532.199280 12.345838,531.636963 12.758247,531.008301 
z"/>
<path fill="#D0C2FC" opacity="1.000000" stroke="none" 
	d="
M346.408447,351.665192 
	C344.702637,352.518829 342.638580,353.968719 341.833923,353.453156 
	C340.206665,352.410461 338.289276,350.297089 338.296600,348.633240 
	C338.304779,346.778687 340.319305,344.932953 342.337067,343.750519 
	C342.115509,345.969757 341.893951,348.188965 341.672394,350.408203 
	C343.521454,349.876678 345.370514,349.345123 347.881805,348.623199 
	C347.393158,349.687805 347.006592,350.529968 346.408447,351.665192 
z"/>
<path fill="#D0C2FC" opacity="1.000000" stroke="none" 
	d="
M328.391418,325.964111 
	C328.697113,323.625153 329.400848,321.276550 330.496613,318.907440 
	C330.388062,321.301941 332.681671,324.546875 328.391418,325.964111 
z"/>
<path fill="#86A3E2" opacity="1.000000" stroke="none" 
	d="
M315.280945,339.979706 
	C314.989441,338.843719 314.991394,337.862396 314.988831,336.514465 
	C314.984314,336.147858 315.446136,336.090637 315.678009,336.094666 
	C316.494232,337.489807 317.078583,338.880890 317.662903,340.272034 
	C316.966736,340.226135 316.270599,340.180237 315.280945,339.979706 
z"/>
<path fill="#C0EAF4" opacity="1.000000" stroke="none" 
	d="
M40.335785,132.023865 
	C39.713299,131.834045 39.445656,131.622208 39.037601,131.193451 
	C38.882950,130.535980 38.868713,130.095474 38.657524,128.986038 
	C35.004807,128.246918 31.549040,128.176712 28.093273,128.106506 
	C22.706238,129.601349 19.545177,126.395126 17.809874,122.227051 
	C17.149712,120.641388 19.162376,117.942947 19.980698,115.376022 
	C20.901289,114.687698 22.332548,114.623016 22.610767,114.023361 
	C24.968042,108.942650 28.395649,109.631393 32.621059,111.987740 
	C33.000191,111.996910 32.999977,112.000000 33.015663,112.359314 
	C33.562119,113.390434 34.092884,114.062241 34.623650,114.734047 
	C35.080864,113.822289 35.538082,112.910530 35.995300,111.998779 
	C35.995304,111.998779 36.000153,112.000305 36.415005,112.005066 
	C38.212223,112.011940 39.594593,112.014053 40.976959,112.016167 
	C40.984356,112.759674 40.991749,113.503189 40.760967,114.800278 
	C40.357224,115.903870 40.191658,116.453880 40.026093,117.003891 
	C39.838886,118.083603 39.651680,119.163307 39.340290,120.959259 
	C41.019714,119.917534 42.126034,119.231293 43.232353,118.545059 
	C43.592194,118.765915 43.952034,118.986771 44.311874,119.207626 
	C43.447403,120.961548 42.582928,122.715469 41.718456,124.469391 
	C41.995518,124.471062 42.272579,124.472740 42.549641,124.474411 
	C42.387203,126.708046 42.224766,128.941681 42.085960,131.525665 
	C41.636604,131.917969 41.163616,131.959900 40.335785,132.023865 
z"/>
<path fill="#83A0E2" opacity="1.000000" stroke="none" 
	d="
M28.090370,128.331665 
	C31.549040,128.176712 35.004807,128.246918 38.595039,128.661224 
	C35.494625,129.004211 32.259750,129.003098 28.583187,129.002991 
	C28.141497,129.003967 28.087467,128.556839 28.090370,128.331665 
z"/>
<path fill="#83A0E2" opacity="1.000000" stroke="none" 
	d="
M30.835777,131.199829 
	C30.897337,131.815186 30.707714,132.619461 30.258247,133.586090 
	C30.193798,132.961884 30.389198,132.175339 30.835777,131.199829 
z"/>
<path fill="#83A0E2" opacity="1.000000" stroke="none" 
	d="
M27.156853,158.347824 
	C27.350931,158.195694 27.579754,158.325378 27.804092,158.769821 
	C27.630030,158.859344 27.427361,158.707703 27.156853,158.347824 
z"/>
<path fill="#83A0E2" opacity="1.000000" stroke="none" 
	d="
M24.727516,136.108643 
	C24.820923,136.281998 24.684418,136.469406 24.292255,136.618805 
	C24.238205,136.453735 24.391874,136.301025 24.727516,136.108643 
z"/>
<path fill="#83A0E2" opacity="1.000000" stroke="none" 
	d="
M24.223684,155.493408 
	C24.380920,155.335159 24.584352,155.426468 24.802353,155.803253 
	C24.666618,155.886673 24.484272,155.771439 24.223684,155.493408 
z"/>
<path fill="#83A0E2" opacity="1.000000" stroke="none" 
	d="
M22.513294,141.208282 
	C22.669767,141.364365 22.582493,141.554611 22.212845,141.740448 
	C22.135937,141.606384 22.248962,141.441864 22.513294,141.208282 
z"/>
<path fill="#83A0E2" opacity="1.000000" stroke="none" 
	d="
M19.932362,142.082214 
	C20.084597,142.018997 19.950289,142.479996 19.874018,142.707123 
	C19.503479,142.663132 19.497606,142.400192 19.932362,142.082214 
z"/>
<path fill="#83A0E2" opacity="1.000000" stroke="none" 
	d="
M22.128626,150.339478 
	C22.294462,150.234421 22.475498,150.351227 22.615559,150.720352 
	C22.460054,150.776337 22.316469,150.639221 22.128626,150.339478 
z"/>
<path fill="#83A0E2" opacity="1.000000" stroke="none" 
	d="
M19.693731,149.185623 
	C19.797813,149.065765 19.948284,149.521027 20.016338,149.751038 
	C19.699892,149.887817 19.534977,149.662628 19.693731,149.185623 
z"/>
<path fill="#E5F6F5" opacity="1.000000" stroke="none" 
	d="
M40.897873,111.666740 
	C39.594593,112.014053 38.212223,112.011940 36.414635,112.002579 
	C37.240711,109.173676 38.894352,109.283096 40.897873,111.666740 
z"/>
<path fill="#E5F6F5" opacity="1.000000" stroke="none" 
	d="
M35.621307,111.998329 
	C35.538082,112.910530 35.080864,113.822289 34.623650,114.734047 
	C34.092884,114.062241 33.562119,113.390434 33.017281,112.359161 
	C33.751240,111.999092 34.499279,111.998489 35.621307,111.998329 
z"/>
<path fill="#E5F6F5" opacity="1.000000" stroke="none" 
	d="
M40.314003,116.972275 
	C40.191658,116.453880 40.357224,115.903870 40.753098,115.172035 
	C41.385750,115.184174 41.788094,115.378136 42.190437,115.572090 
	C41.660931,116.028282 41.131420,116.484474 40.314003,116.972275 
z"/>
<path fill="#D0C2FC" opacity="1.000000" stroke="none" 
	d="
M277.066895,579.960938 
	C276.475098,579.168701 275.883301,578.376465 275.156677,577.321350 
	C275.034271,576.284302 275.046661,575.510132 275.051880,574.348694 
	C276.421356,573.967468 277.798004,573.973511 279.764526,574.223877 
	C280.902161,574.644592 281.449860,574.821106 281.997559,574.997559 
	C281.884491,576.285767 281.771454,577.573975 281.010986,579.067200 
	C279.264709,579.501770 278.165802,579.731384 277.066895,579.960938 
z"/>
<path fill="#C1E7F5" opacity="1.000000" stroke="none" 
	d="
M283.848846,565.618042 
	C283.353851,565.436829 282.730072,565.021423 282.051636,564.295532 
	C281.996918,563.985046 282.393555,563.993896 282.588104,564.026978 
	C283.095123,564.501282 283.407593,564.942505 283.848846,565.618042 
z"/>
<path fill="#C1E7F5" opacity="1.000000" stroke="none" 
	d="
M276.754669,580.036743 
	C278.165802,579.731384 279.264709,579.501770 280.681885,579.143860 
	C280.996155,579.753540 280.992188,580.491577 280.977417,581.598083 
	C279.548309,581.943787 278.123962,581.975769 276.720398,581.820129 
	C276.566498,581.803040 276.532227,580.707703 276.754669,580.036743 
z"/>
<path fill="#C1E7F5" opacity="1.000000" stroke="none" 
	d="
M281.957886,574.719727 
	C281.449860,574.821106 280.902161,574.644592 280.178162,574.232666 
	C280.640656,574.145447 281.279419,574.293640 281.957886,574.719727 
z"/>
</svg>